<svg xmlns="http://www.w3.org/2000/svg" viewBox="0 0 260 300" role="img" aria-label="Palta con corazon variante 3">
  <defs>
    <linearGradient id="skin3" x1="0" y1="0" x2="0" y2="1">
      <stop offset="0" stop-color="#72cf5d"/>
      <stop offset="1" stop-color="#3c8e3c"/>
    </linearGradient>
    <linearGradient id="flesh3" x1="0" y1="0" x2="1" y2="1">
      <stop offset="0" stop-color="#dff5a9"/>
      <stop offset="1" stop-color="#9fcd5e"/>
    </linearGradient>
  </defs>

  <ellipse cx="130" cy="288" rx="70" ry="10" fill="#173b1f" opacity="0.18"/>
  <path d="M130 22c56 0 97 44 97 102 0 72-54 146-97 146S33 196 33 124c0-58 41-102 97-102z" fill="url(#skin3)" stroke="#2b7031" stroke-width="6"/>
  <path d="M130 50c42 0 73 33 73 77 0 56-40 114-73 114s-73-58-73-114c0-44 31-77 73-77z" fill="url(#flesh3)" stroke="#86b94f" stroke-width="4"/>

  <ellipse cx="104" cy="118" rx="8" ry="10" fill="#213f22"/>
  <ellipse cx="156" cy="118" rx="8" ry="10" fill="#213f22"/>
  <path d="M102 152c8 10 48 10 56 0" fill="none" stroke="#213f22" stroke-width="6" stroke-linecap="round"/>

  <path d="M132 194c-8 0-31-7-31-26 0-14 10-23 22-23 9 0 15 4 19 10 4-6 10-10 19-10 12 0 22 9 22 23 0 19-23 26-31 26h-20z" fill="#ff3f89"/>

  <path d="M44 126c-16 7-25 20-25 37" fill="none" stroke="#2b7031" stroke-width="7" stroke-linecap="round"/>
  <path d="M216 126c16 7 25 20 25 37" fill="none" stroke="#2b7031" stroke-width="7" stroke-linecap="round"/>
  <path d="M100 270c-2 9-5 14-11 18" fill="none" stroke="#2b7031" stroke-width="7" stroke-linecap="round"/>
  <path d="M160 270c2 9 5 14 11 18" fill="none" stroke="#2b7031" stroke-width="7" stroke-linecap="round"/>
</svg>
